<svg viewBox="0 -33 512 511" xmlns="http://www.w3.org/2000/svg"><path d="m467 361.492188h-422c-24.8125 0-45-20.1875-45-45v-270.992188c0-24.8125 20.1875-45 45-45h422c24.8125 0 45 20.1875 45 45v270.992188c0 24.8125-20.1875 45-45 45zm0 0" fill="#e9edf5"/><path d="m256 .5h-211c-24.8125 0-45 20.1875-45 45v270.992188c0 24.8125 20.1875 45 45 45h211zm0 0" fill="#fff"/><path d="m304.273438 445.765625c8.285156 0 15-6.714844 15-15v-77.695313c0-8.285156-6.714844-15-15-15h-96.546876c-8.285156 0-15 6.714844-15 15v77.695313c0 8.285156 6.714844 15 15 15zm0 0" fill="#9196aa"/><path d="m256 338.070312h-48.273438c-8.285156 0-15 6.714844-15 15v77.695313c0 8.285156 6.714844 15 15 15h48.273438zm0 0" fill="#cdd2e1"/><path d="m360.714844 445.925781h-209.429688c-8.285156 0-15-6.714843-15-15 0-8.285156 6.714844-15 15-15h209.433594c8.28125 0 15 6.714844 15 15 0 8.285157-6.71875 15-15.003906 15zm0 0" fill="#bec3d2"/><path d="m0 276.21875v40.273438c0 24.8125 20.1875 45 45 45h422c24.8125 0 45-20.1875 45-45v-40.273438zm0 0" fill="#bec3d2"/><path d="m256 276.21875h-256v40.273438c0 24.8125 20.1875 45 45 45h211zm0 0" fill="#e9edf5"/><path d="m262.480469 320.226562h-12.960938c-8.28125 0-15-6.71875-15-15 0-8.285156 6.71875-15 15-15h12.960938c8.28125 0 15 6.714844 15 15 0 8.28125-6.71875 15-15 15zm0 0" fill="#9196aa"/><path d="m256 290.226562h-6.480469c-8.28125 0-15 6.714844-15 15 0 8.28125 6.71875 15 15 15h6.480469zm0 0" fill="#cdd2e1"/><path d="m256 415.925781h-104.714844c-8.285156 0-15 6.714844-15 15 0 8.285157 6.714844 15 15 15h104.714844zm0 0" fill="#e9edf5"/><path d="m512 45.5c0-24.8125-20.1875-45-45-45h-422c-24.8125 0-45 20.1875-45 45v230.71875h512zm-30 200.71875h-452v-200.71875c0-8.269531 6.730469-15 15-15h422c8.269531 0 15 6.730469 15 15zm0 0" fill="#293146"/><path d="m256 246.21875h-226v-200.71875c0-8.269531 6.730469-15 15-15h211v-30h-211c-24.8125 0-45 20.1875-45 45v230.71875h256zm0 0" fill="#587ca2"/><path d="m327.496094 122.144531c-7.449219 0-13.492188-6.042969-13.492188-13.496093v-13.058594h-7.015625c-7.453125 0-13.496093-6.039063-13.496093-13.492188s6.042968-13.492187 13.496093-13.492187h20.511719c7.449219 0 13.492188 6.039062 13.492188 13.492187v26.550782c0 7.453124-6.042969 13.496093-13.496094 13.496093zm0 0" fill="#9196aa"/><g fill="#3b4975"><path d="m233.035156 108.234375h-143.535156c-8.285156 0-15-6.714844-15-15s6.714844-15 15-15h143.535156c8.285156 0 15 6.714844 15 15s-6.714844 15-15 15zm0 0"/><path d="m233.035156 156.085938h-143.535156c-8.285156 0-15-6.714844-15-15 0-8.28125 6.714844-15 15-15h143.535156c8.285156 0 15 6.71875 15 15 0 8.285156-6.714844 15-15 15zm0 0"/><path d="m233.035156 203.941406h-143.535156c-8.285156 0-15-6.714844-15-15s6.714844-15 15-15h143.535156c8.285156 0 15 6.714844 15 15s-6.714844 15-15 15zm0 0"/></g><path d="m348.351562 199.910156c0 7.976563-6.46875 14.445313-14.445312 14.445313s-14.441406-6.46875-14.441406-14.445313c0-7.976562 6.464844-14.441406 14.441406-14.441406s14.445312 6.464844 14.445312 14.441406zm0 0" fill="#9196aa"/><path d="m392.351562 199.910156c0 7.976563-6.46875 14.445313-14.445312 14.445313s-14.441406-6.46875-14.441406-14.445313c0-7.976562 6.464844-14.441406 14.441406-14.441406s14.445312 6.464844 14.445312 14.441406zm0 0" fill="#9196aa"/><path d="m389.832031 176.03125h-62.394531c-3.578125 0-7.015625-1.421875-9.542969-3.957031-2.53125-2.535157-3.953125-5.96875-3.949219-9.550781l.058594-53.671876c.007813-7.445312 6.046875-13.480468 13.492188-13.480468h92.84375c4.804687 0 9.25 2.554687 11.664062 6.707031 2.417969 4.15625 2.441406 9.277344.066406 13.457031l-30.507812 53.671875c-2.398438 4.21875-6.878906 6.824219-11.730469 6.824219zm0 0" fill="#ff3e50"/></svg>