<svg xmlns="http://www.w3.org/2000/svg" height="596.718pt" version="1.1" viewBox="1 1 596.718 596.718" width="596.718pt">
<g id="surface1">
<path d="M 39.800781 9.949219 L 477.597656 9.949219 C 494.085938 9.949219 507.449219 23.3125 507.449219 39.800781 L 507.449219 398 C 507.449219 414.488281 494.085938 427.851562 477.597656 427.851562 L 39.800781 427.851562 C 23.3125 427.851562 9.949219 414.488281 9.949219 398 L 9.949219 39.800781 C 9.949219 23.3125 23.3125 9.949219 39.800781 9.949219 Z M 39.800781 9.949219 " style=" stroke:none;fill-rule:nonzero;fill:rgb(26.27451%,59.607843%,81.960784%);fill-opacity:1;" />
<path d="M 39.800781 39.800781 L 59.699219 39.800781 L 59.699219 59.699219 L 39.800781 59.699219 Z M 39.800781 39.800781 " style=" stroke:none;fill-rule:nonzero;fill:rgb(24.313725%,54.901961%,78.039216%);fill-opacity:1;" />
<path d="M 79.597656 39.800781 L 99.5 39.800781 L 99.5 59.699219 L 79.597656 59.699219 Z M 79.597656 39.800781 " style=" stroke:none;fill-rule:nonzero;fill:rgb(24.313725%,54.901961%,78.039216%);fill-opacity:1;" />
<path d="M 119.402344 39.800781 L 139.300781 39.800781 L 139.300781 59.699219 L 119.402344 59.699219 Z M 119.402344 39.800781 " style=" stroke:none;fill-rule:nonzero;fill:rgb(24.313725%,54.901961%,78.039216%);fill-opacity:1;" />
<path d="M 119.402344 89.550781 L 557.199219 89.550781 C 573.6875 89.550781 587.050781 102.914062 587.050781 119.402344 L 587.050781 477.601562 C 587.050781 494.085938 573.6875 507.449219 557.199219 507.449219 L 119.402344 507.449219 C 102.914062 507.449219 89.550781 494.085938 89.550781 477.601562 L 89.550781 119.402344 C 89.550781 102.914062 102.914062 89.550781 119.402344 89.550781 Z M 119.402344 89.550781 " style=" stroke:none;fill-rule:nonzero;fill:rgb(52.941176%,80.784314%,85.098039%);fill-opacity:1;" />
<path d="M 557.199219 89.550781 L 532.324219 89.550781 L 114.882812 506.992188 C 116.375 507.261719 117.886719 507.410156 119.398438 507.449219 L 557.199219 507.449219 C 573.6875 507.449219 587.050781 494.085938 587.050781 477.597656 L 587.050781 119.402344 C 587.050781 102.914062 573.6875 89.550781 557.199219 89.550781 Z M 557.199219 89.550781 " style=" stroke:none;fill-rule:nonzero;fill:rgb(44.313725%,76.862745%,81.960784%);fill-opacity:1;" />
<path d="M 119.402344 119.402344 L 139.300781 119.402344 L 139.300781 139.300781 L 119.402344 139.300781 Z M 119.402344 119.402344 " style=" stroke:none;fill-rule:nonzero;fill:rgb(36.862745%,70.196078%,81.960784%);fill-opacity:1;" />
<path d="M 159.199219 119.402344 L 179.101562 119.402344 L 179.101562 139.300781 L 159.199219 139.300781 Z M 159.199219 119.402344 " style=" stroke:none;fill-rule:nonzero;fill:rgb(36.862745%,70.196078%,81.960784%);fill-opacity:1;" />
<path d="M 199 119.402344 L 218.902344 119.402344 L 218.902344 139.300781 L 199 139.300781 Z M 199 119.402344 " style=" stroke:none;fill-rule:nonzero;fill:rgb(36.862745%,70.196078%,81.960784%);fill-opacity:1;" />
<path d="M 119.402344 159.199219 L 557.199219 159.199219 L 557.199219 179.101562 L 119.402344 179.101562 Z M 119.402344 159.199219 " style=" stroke:none;fill-rule:nonzero;fill:rgb(36.862745%,70.196078%,81.960784%);fill-opacity:1;" />
<path d="M 139.300781 328.351562 L 199 328.351562 L 199 348.25 L 139.300781 348.25 Z M 139.300781 328.351562 " style=" stroke:none;fill-rule:nonzero;fill:rgb(36.862745%,70.196078%,81.960784%);fill-opacity:1;" />
<path d="M 139.300781 378.097656 L 348.25 378.097656 L 348.25 398 L 139.300781 398 Z M 139.300781 378.097656 " style=" stroke:none;fill-rule:nonzero;fill:rgb(36.862745%,70.196078%,81.960784%);fill-opacity:1;" />
<path d="M 139.300781 427.851562 L 248.75 427.851562 L 248.75 447.75 L 139.300781 447.75 Z M 139.300781 427.851562 " style=" stroke:none;fill-rule:nonzero;fill:rgb(36.862745%,70.196078%,81.960784%);fill-opacity:1;" />
<path d="M 318.398438 278.597656 L 417.898438 278.597656 L 417.898438 298.5 L 318.398438 298.5 Z M 318.398438 278.597656 " style=" stroke:none;fill-rule:nonzero;fill:rgb(36.862745%,70.196078%,81.960784%);fill-opacity:1;" />
<path d="M 467.648438 378.097656 L 537.300781 378.097656 L 537.300781 398 L 467.648438 398 Z M 467.648438 378.097656 " style=" stroke:none;fill-rule:nonzero;fill:rgb(36.862745%,70.196078%,81.960784%);fill-opacity:1;" />
<path d="M 378.097656 427.851562 L 537.300781 427.851562 L 537.300781 447.75 L 378.097656 447.75 Z M 378.097656 427.851562 " style=" stroke:none;fill-rule:nonzero;fill:rgb(36.862745%,70.196078%,81.960784%);fill-opacity:1;" />
<path d="M 228.851562 328.351562 L 378.097656 328.351562 L 378.097656 348.25 L 228.851562 348.25 Z M 228.851562 328.351562 " style=" stroke:none;fill-rule:nonzero;fill:rgb(36.862745%,70.196078%,81.960784%);fill-opacity:1;" />
<path d="M 318.398438 228.851562 L 388.050781 228.851562 L 388.050781 248.75 L 318.398438 248.75 Z M 318.398438 228.851562 " style=" stroke:none;fill-rule:nonzero;fill:rgb(36.862745%,70.196078%,81.960784%);fill-opacity:1;" />
<path d="M 407.949219 228.851562 L 537.300781 228.851562 L 537.300781 248.75 L 407.949219 248.75 Z M 407.949219 228.851562 " style=" stroke:none;fill-rule:nonzero;fill:rgb(36.862745%,70.196078%,81.960784%);fill-opacity:1;" />
<path d="M 268.648438 427.851562 L 358.199219 427.851562 L 358.199219 447.75 L 268.648438 447.75 Z M 268.648438 427.851562 " style=" stroke:none;fill-rule:nonzero;fill:rgb(36.862745%,70.196078%,81.960784%);fill-opacity:1;" />
<path d="M 398 328.351562 L 537.300781 328.351562 L 537.300781 348.25 L 398 348.25 Z M 398 328.351562 " style=" stroke:none;fill-rule:nonzero;fill:rgb(36.862745%,70.196078%,81.960784%);fill-opacity:1;" />
<path d="M 437.800781 278.597656 L 537.300781 278.597656 L 537.300781 298.5 L 437.800781 298.5 Z M 437.800781 278.597656 " style=" stroke:none;fill-rule:nonzero;fill:rgb(36.862745%,70.196078%,81.960784%);fill-opacity:1;" />
<path d="M 368.148438 378.097656 L 447.75 378.097656 L 447.75 398 L 368.148438 398 Z M 368.148438 378.097656 " style=" stroke:none;fill-rule:nonzero;fill:rgb(36.862745%,70.196078%,81.960784%);fill-opacity:1;" />
<path d="M 172.066406 295.585938 L 142.214844 265.734375 C 138.335938 261.855469 138.335938 255.546875 142.214844 251.664062 L 172.066406 221.816406 L 186.136719 235.882812 L 163.320312 258.699219 L 186.136719 281.515625 Z M 172.066406 295.585938 " style=" stroke:none;fill-rule:nonzero;fill:rgb(89.019608%,29.411765%,52.941176%);fill-opacity:1;" />
<path d="M 265.734375 295.585938 L 251.664062 281.515625 L 274.480469 258.699219 L 251.664062 235.882812 L 265.734375 221.8125 L 295.585938 251.664062 C 299.464844 255.542969 299.464844 261.851562 295.585938 265.734375 Z M 265.734375 295.585938 " style=" stroke:none;fill-rule:nonzero;fill:rgb(89.019608%,29.411765%,52.941176%);fill-opacity:1;" />
<path d="M 199.292969 296.101562 L 219.203125 216.503906 L 238.507812 221.335938 L 218.597656 300.929688 Z M 199.292969 296.101562 " style=" stroke:none;fill-rule:nonzero;fill:rgb(89.019608%,29.411765%,52.941176%);fill-opacity:1;" />
<path d="M 228.851562 547.25 L 208.949219 567.148438 L 228.851562 587.050781 L 427.851562 587.050781 L 427.851562 547.25 Z M 228.851562 547.25 " style=" stroke:none;fill-rule:nonzero;fill:rgb(89.019608%,29.411765%,52.941176%);fill-opacity:1;" />
<path d="M 447.75 547.25 L 427.847656 547.25 L 427.847656 587.050781 L 447.75 587.050781 C 458.746094 587.050781 467.648438 578.144531 467.648438 567.148438 C 467.648438 556.152344 458.746094 547.25 447.75 547.25 Z M 447.75 547.25 " style=" stroke:none;fill-rule:nonzero;fill:rgb(26.27451%,59.607843%,81.960784%);fill-opacity:1;" />
<path d="M 89.550781 119.402344 L 89.550781 427.851562 L 59.699219 427.851562 L 59.699219 149.25 C 59.699219 132.761719 73.0625 119.402344 89.550781 119.402344 Z M 89.550781 119.402344 " style=" stroke:none;fill-rule:nonzero;fill:rgb(24.313725%,54.901961%,78.039216%);fill-opacity:1;" />
<path d="M 39.800781 437.800781 L 59.699219 437.800781 L 59.699219 417.898438 L 39.800781 417.898438 C 28.804688 417.898438 19.898438 408.996094 19.898438 398 L 19.898438 39.800781 C 19.898438 28.804688 28.804688 19.898438 39.800781 19.898438 L 477.597656 19.898438 C 488.59375 19.898438 497.5 28.804688 497.5 39.800781 L 497.5 59.699219 L 517.402344 59.699219 L 517.402344 39.800781 C 517.398438 17.820312 499.578125 0 477.597656 0 L 39.800781 0 C 17.820312 0 0 17.820312 0 39.800781 L 0 398 C 0 419.980469 17.820312 437.800781 39.800781 437.800781 Z M 39.800781 437.800781 " style=" stroke:none;fill-rule:nonzero;fill:rgb(0%,0%,0%);fill-opacity:1;" />
<path d="M 39.800781 39.800781 L 59.699219 39.800781 L 59.699219 59.699219 L 39.800781 59.699219 Z M 39.800781 39.800781 " style=" stroke:none;fill-rule:nonzero;fill:rgb(0%,0%,0%);fill-opacity:1;" />
<path d="M 79.597656 39.800781 L 99.5 39.800781 L 99.5 59.699219 L 79.597656 59.699219 Z M 79.597656 39.800781 " style=" stroke:none;fill-rule:nonzero;fill:rgb(0%,0%,0%);fill-opacity:1;" />
<path d="M 119.402344 39.800781 L 139.300781 39.800781 L 139.300781 59.699219 L 119.402344 59.699219 Z M 119.402344 39.800781 " style=" stroke:none;fill-rule:nonzero;fill:rgb(0%,0%,0%);fill-opacity:1;" />
<path d="M 557.199219 79.597656 L 119.402344 79.597656 C 97.421875 79.597656 79.601562 97.421875 79.601562 119.398438 L 79.601562 477.597656 C 79.601562 499.578125 97.421875 517.398438 119.402344 517.398438 L 557.199219 517.398438 C 579.179688 517.398438 597 499.578125 597 477.597656 L 597 119.402344 C 597 97.421875 579.179688 79.597656 557.199219 79.597656 Z M 577.097656 477.597656 C 577.097656 488.59375 568.195312 497.5 557.199219 497.5 L 119.402344 497.5 C 108.40625 497.5 99.5 488.59375 99.5 477.597656 L 99.5 119.402344 C 99.5 108.40625 108.40625 99.5 119.402344 99.5 L 557.199219 99.5 C 568.195312 99.5 577.101562 108.40625 577.101562 119.402344 L 577.101562 477.597656 Z M 577.097656 477.597656 " style=" stroke:none;fill-rule:nonzero;fill:rgb(0%,0%,0%);fill-opacity:1;" />
<path d="M 119.402344 119.402344 L 139.300781 119.402344 L 139.300781 139.300781 L 119.402344 139.300781 Z M 119.402344 119.402344 " style=" stroke:none;fill-rule:nonzero;fill:rgb(0%,0%,0%);fill-opacity:1;" />
<path d="M 159.199219 119.402344 L 179.101562 119.402344 L 179.101562 139.300781 L 159.199219 139.300781 Z M 159.199219 119.402344 " style=" stroke:none;fill-rule:nonzero;fill:rgb(0%,0%,0%);fill-opacity:1;" />
<path d="M 199 119.402344 L 218.902344 119.402344 L 218.902344 139.300781 L 199 139.300781 Z M 199 119.402344 " style=" stroke:none;fill-rule:nonzero;fill:rgb(0%,0%,0%);fill-opacity:1;" />
<path d="M 119.402344 159.199219 L 557.199219 159.199219 L 557.199219 179.101562 L 119.402344 179.101562 Z M 119.402344 159.199219 " style=" stroke:none;fill-rule:nonzero;fill:rgb(0%,0%,0%);fill-opacity:1;" />
<path d="M 139.300781 328.351562 L 199 328.351562 L 199 348.25 L 139.300781 348.25 Z M 139.300781 328.351562 " style=" stroke:none;fill-rule:nonzero;fill:rgb(0%,0%,0%);fill-opacity:1;" />
<path d="M 139.300781 378.097656 L 348.25 378.097656 L 348.25 398 L 139.300781 398 Z M 139.300781 378.097656 " style=" stroke:none;fill-rule:nonzero;fill:rgb(0%,0%,0%);fill-opacity:1;" />
<path d="M 139.300781 427.851562 L 248.75 427.851562 L 248.75 447.75 L 139.300781 447.75 Z M 139.300781 427.851562 " style=" stroke:none;fill-rule:nonzero;fill:rgb(0%,0%,0%);fill-opacity:1;" />
<path d="M 318.398438 278.597656 L 417.898438 278.597656 L 417.898438 298.5 L 318.398438 298.5 Z M 318.398438 278.597656 " style=" stroke:none;fill-rule:nonzero;fill:rgb(0%,0%,0%);fill-opacity:1;" />
<path d="M 467.648438 378.097656 L 537.300781 378.097656 L 537.300781 398 L 467.648438 398 Z M 467.648438 378.097656 " style=" stroke:none;fill-rule:nonzero;fill:rgb(0%,0%,0%);fill-opacity:1;" />
<path d="M 378.097656 427.851562 L 537.300781 427.851562 L 537.300781 447.75 L 378.097656 447.75 Z M 378.097656 427.851562 " style=" stroke:none;fill-rule:nonzero;fill:rgb(0%,0%,0%);fill-opacity:1;" />
<path d="M 228.851562 328.351562 L 378.097656 328.351562 L 378.097656 348.25 L 228.851562 348.25 Z M 228.851562 328.351562 " style=" stroke:none;fill-rule:nonzero;fill:rgb(0%,0%,0%);fill-opacity:1;" />
<path d="M 318.398438 228.851562 L 388.050781 228.851562 L 388.050781 248.75 L 318.398438 248.75 Z M 318.398438 228.851562 " style=" stroke:none;fill-rule:nonzero;fill:rgb(0%,0%,0%);fill-opacity:1;" />
<path d="M 407.949219 228.851562 L 537.300781 228.851562 L 537.300781 248.75 L 407.949219 248.75 Z M 407.949219 228.851562 " style=" stroke:none;fill-rule:nonzero;fill:rgb(0%,0%,0%);fill-opacity:1;" />
<path d="M 268.648438 427.851562 L 358.199219 427.851562 L 358.199219 447.75 L 268.648438 447.75 Z M 268.648438 427.851562 " style=" stroke:none;fill-rule:nonzero;fill:rgb(0%,0%,0%);fill-opacity:1;" />
<path d="M 398 328.351562 L 537.300781 328.351562 L 537.300781 348.25 L 398 348.25 Z M 398 328.351562 " style=" stroke:none;fill-rule:nonzero;fill:rgb(0%,0%,0%);fill-opacity:1;" />
<path d="M 437.800781 278.597656 L 537.300781 278.597656 L 537.300781 298.5 L 437.800781 298.5 Z M 437.800781 278.597656 " style=" stroke:none;fill-rule:nonzero;fill:rgb(0%,0%,0%);fill-opacity:1;" />
<path d="M 368.148438 378.097656 L 447.75 378.097656 L 447.75 398 L 368.148438 398 Z M 368.148438 378.097656 " style=" stroke:none;fill-rule:nonzero;fill:rgb(0%,0%,0%);fill-opacity:1;" />
<path d="M 172.066406 221.816406 L 142.214844 251.664062 C 138.335938 255.546875 138.335938 261.855469 142.214844 265.734375 L 172.066406 295.585938 L 186.136719 281.515625 L 163.320312 258.699219 L 186.136719 235.882812 Z M 172.066406 221.816406 " style=" stroke:none;fill-rule:nonzero;fill:rgb(0%,0%,0%);fill-opacity:1;" />
<path d="M 265.734375 295.585938 L 295.585938 265.734375 C 299.464844 261.855469 299.464844 255.546875 295.585938 251.664062 L 265.734375 221.816406 L 251.664062 235.882812 L 274.480469 258.699219 L 251.664062 281.515625 Z M 265.734375 295.585938 " style=" stroke:none;fill-rule:nonzero;fill:rgb(0%,0%,0%);fill-opacity:1;" />
<path d="M 199.292969 296.101562 L 219.203125 216.503906 L 238.507812 221.335938 L 218.597656 300.929688 Z M 199.292969 296.101562 " style=" stroke:none;fill-rule:nonzero;fill:rgb(0%,0%,0%);fill-opacity:1;" />
<path d="M 447.75 537.300781 L 228.851562 537.300781 C 226.214844 537.300781 223.675781 538.34375 221.816406 540.214844 L 201.914062 560.113281 C 198.035156 563.996094 198.035156 570.304688 201.914062 574.183594 L 221.816406 594.085938 C 223.675781 595.957031 226.214844 597 228.851562 597 L 447.75 597 C 464.234375 597 477.597656 583.636719 477.597656 567.148438 C 477.597656 550.664062 464.238281 537.300781 447.75 537.300781 Z M 417.898438 577.097656 L 232.96875 577.097656 L 223.019531 567.148438 L 232.96875 557.199219 L 417.898438 557.199219 Z M 447.75 577.097656 L 437.800781 577.097656 L 437.800781 557.199219 L 447.75 557.199219 C 453.242188 557.199219 457.699219 561.65625 457.699219 567.148438 C 457.699219 572.640625 453.242188 577.097656 447.75 577.097656 Z M 447.75 577.097656 " style=" stroke:none;fill-rule:nonzero;fill:rgb(0%,0%,0%);fill-opacity:1;" />
</g>
</svg>