<svg xmlns="http://www.w3.org/2000/svg" height="596.718pt" version="1.1" viewBox="1 1 596.718 596.718" width="596.718pt">
<g id="surface1">
<path d="M 119.402344 9.949219 L 557.199219 9.949219 C 573.6875 9.949219 587.050781 23.3125 587.050781 39.800781 L 587.050781 398 C 587.050781 414.488281 573.6875 427.851562 557.199219 427.851562 L 119.402344 427.851562 C 102.914062 427.851562 89.550781 414.488281 89.550781 398 L 89.550781 39.800781 C 89.550781 23.3125 102.914062 9.949219 119.402344 9.949219 Z M 119.402344 9.949219 " style=" stroke:none;fill-rule:nonzero;fill:rgb(52.941176%,80.784314%,85.098039%);fill-opacity:1;" />
<path d="M 557.199219 9.949219 L 530.664062 9.949219 L 113.429688 427.242188 C 115.390625 427.640625 117.390625 427.851562 119.398438 427.851562 L 557.199219 427.851562 C 573.6875 427.851562 587.050781 414.488281 587.050781 398 L 587.050781 39.800781 C 587.050781 23.3125 573.6875 9.949219 557.199219 9.949219 Z M 557.199219 9.949219 " style=" stroke:none;fill-rule:nonzero;fill:rgb(44.313725%,76.862745%,81.960784%);fill-opacity:1;" />
<path d="M 119.402344 39.800781 L 139.300781 39.800781 L 139.300781 59.699219 L 119.402344 59.699219 Z M 119.402344 39.800781 " style=" stroke:none;fill-rule:nonzero;fill:rgb(36.862745%,70.196078%,81.960784%);fill-opacity:1;" />
<path d="M 159.199219 39.800781 L 179.101562 39.800781 L 179.101562 59.699219 L 159.199219 59.699219 Z M 159.199219 39.800781 " style=" stroke:none;fill-rule:nonzero;fill:rgb(36.862745%,70.196078%,81.960784%);fill-opacity:1;" />
<path d="M 199 39.800781 L 218.902344 39.800781 L 218.902344 59.699219 L 199 59.699219 Z M 199 39.800781 " style=" stroke:none;fill-rule:nonzero;fill:rgb(36.862745%,70.196078%,81.960784%);fill-opacity:1;" />
<path d="M 119.402344 79.597656 L 557.199219 79.597656 L 557.199219 99.5 L 119.402344 99.5 Z M 119.402344 79.597656 " style=" stroke:none;fill-rule:nonzero;fill:rgb(36.862745%,70.196078%,81.960784%);fill-opacity:1;" />
<path d="M 467.648438 278.597656 L 557.199219 278.597656 L 557.199219 298.5 L 467.648438 298.5 Z M 467.648438 278.597656 " style=" stroke:none;fill-rule:nonzero;fill:rgb(36.862745%,70.196078%,81.960784%);fill-opacity:1;" />
<path d="M 358.199219 328.351562 L 557.199219 328.351562 L 557.199219 348.25 L 358.199219 348.25 Z M 358.199219 328.351562 " style=" stroke:none;fill-rule:nonzero;fill:rgb(36.862745%,70.196078%,81.960784%);fill-opacity:1;" />
<path d="M 407.949219 179.097656 L 517.398438 179.097656 L 517.398438 199 L 407.949219 199 Z M 407.949219 179.097656 " style=" stroke:none;fill-rule:nonzero;fill:rgb(36.862745%,70.196078%,81.960784%);fill-opacity:1;" />
<path d="M 407.949219 129.351562 L 487.550781 129.351562 L 487.550781 149.25 L 407.949219 149.25 Z M 407.949219 129.351562 " style=" stroke:none;fill-rule:nonzero;fill:rgb(36.862745%,70.196078%,81.960784%);fill-opacity:1;" />
<path d="M 507.449219 129.351562 L 557.199219 129.351562 L 557.199219 149.25 L 507.449219 149.25 Z M 507.449219 129.351562 " style=" stroke:none;fill-rule:nonzero;fill:rgb(36.862745%,70.196078%,81.960784%);fill-opacity:1;" />
<path d="M 537.300781 179.097656 L 557.199219 179.097656 L 557.199219 199 L 537.300781 199 Z M 537.300781 179.097656 " style=" stroke:none;fill-rule:nonzero;fill:rgb(36.862745%,70.196078%,81.960784%);fill-opacity:1;" />
<path d="M 407.949219 228.851562 L 557.199219 228.851562 L 557.199219 248.75 L 407.949219 248.75 Z M 407.949219 228.851562 " style=" stroke:none;fill-rule:nonzero;fill:rgb(36.862745%,70.196078%,81.960784%);fill-opacity:1;" />
<path d="M 368.148438 278.597656 L 447.75 278.597656 L 447.75 298.5 L 368.148438 298.5 Z M 368.148438 278.597656 " style=" stroke:none;fill-rule:nonzero;fill:rgb(36.862745%,70.196078%,81.960784%);fill-opacity:1;" />
<path d="M 467.648438 378.097656 L 557.199219 378.097656 L 557.199219 398 L 467.648438 398 Z M 467.648438 378.097656 " style=" stroke:none;fill-rule:nonzero;fill:rgb(36.862745%,70.196078%,81.960784%);fill-opacity:1;" />
<path d="M 368.148438 378.097656 L 447.75 378.097656 L 447.75 398 L 368.148438 398 Z M 368.148438 378.097656 " style=" stroke:none;fill-rule:nonzero;fill:rgb(36.862745%,70.196078%,81.960784%);fill-opacity:1;" />
<path d="M 69.648438 467.648438 L 368.148438 467.648438 L 368.148438 587.050781 L 69.648438 587.050781 C 36.675781 587.050781 9.949219 560.324219 9.949219 527.351562 C 9.949219 494.375 36.675781 467.648438 69.648438 467.648438 Z M 69.648438 467.648438 " style=" stroke:none;fill-rule:nonzero;fill:rgb(85.490196%,86.666667%,87.45098%);fill-opacity:1;" />
<path d="M 69.648438 467.648438 C 36.675781 467.648438 9.949219 494.375 9.949219 527.351562 C 9.949219 560.324219 36.675781 587.050781 69.648438 587.050781 L 119.398438 587.050781 L 238.800781 467.648438 Z M 69.648438 467.648438 " style=" stroke:none;fill-rule:nonzero;fill:rgb(75.686275%,78.039216%,78.823529%);fill-opacity:1;" />
<path d="M 278.597656 497.5 L 338.300781 497.5 L 338.300781 557.199219 L 278.597656 557.199219 Z M 278.597656 497.5 " style=" stroke:none;fill-rule:nonzero;fill:rgb(99.215686%,65.490196%,18.431373%);fill-opacity:1;" />
<path d="M 159.199219 497.5 L 218.902344 497.5 L 218.902344 557.199219 L 159.199219 557.199219 Z M 159.199219 497.5 " style=" stroke:none;fill-rule:nonzero;fill:rgb(89.019608%,29.411765%,52.941176%);fill-opacity:1;" />
<path d="M 27.433594 485.140625 L 238.5 274.074219 L 322.925781 358.5 L 111.859375 569.566406 C 88.542969 592.878906 50.746094 592.878906 27.433594 569.566406 C 4.117188 546.253906 4.117188 508.453125 27.433594 485.140625 Z M 27.433594 485.140625 " style=" stroke:none;fill-rule:nonzero;fill:rgb(85.490196%,86.666667%,87.45098%);fill-opacity:1;" />
<path d="M 149.25 363.324219 L 27.433594 485.132812 C 4.117188 508.445312 4.117188 546.253906 27.433594 569.566406 C 50.746094 592.878906 88.554688 592.878906 111.867188 569.566406 L 149.25 532.175781 Z M 149.25 363.324219 " style=" stroke:none;fill-rule:nonzero;fill:rgb(75.686275%,78.039216%,78.823529%);fill-opacity:1;" />
<path d="M 194.160156 360.617188 L 236.375 318.402344 L 278.589844 360.617188 L 236.375 402.828125 Z M 194.160156 360.617188 " style=" stroke:none;fill-rule:nonzero;fill:rgb(52.941176%,80.784314%,85.098039%);fill-opacity:1;" />
<path d="M 109.738281 445.042969 L 151.949219 402.828125 L 194.164062 445.042969 L 151.949219 487.253906 Z M 109.738281 445.042969 " style=" stroke:none;fill-rule:nonzero;fill:rgb(36.862745%,70.196078%,81.960784%);fill-opacity:1;" />
<path d="M 9.949219 527.347656 L 9.949219 228.851562 L 129.351562 228.851562 L 129.351562 527.347656 C 129.351562 560.324219 102.625 587.050781 69.648438 587.050781 C 36.675781 587.050781 9.949219 560.324219 9.949219 527.347656 Z M 9.949219 527.347656 " style=" stroke:none;fill-rule:nonzero;fill:rgb(85.490196%,86.666667%,87.45098%);fill-opacity:1;" />
<path d="M 89.550781 527.347656 C 89.550781 538.339844 80.640625 547.25 69.648438 547.25 C 58.660156 547.25 49.75 538.339844 49.75 527.347656 C 49.75 516.359375 58.660156 507.449219 69.648438 507.449219 C 80.640625 507.449219 89.550781 516.359375 89.550781 527.347656 Z M 89.550781 527.347656 " style=" stroke:none;fill-rule:nonzero;fill:rgb(75.686275%,78.039216%,78.823529%);fill-opacity:1;" />
<path d="M 208.949219 268.648438 L 189.050781 268.648438 C 172.5625 268.648438 159.199219 255.285156 159.199219 238.800781 L 159.199219 223.019531 L 142.214844 206.035156 C 138.332031 202.152344 138.332031 195.84375 142.214844 191.964844 L 159.199219 174.980469 L 159.199219 159.199219 C 159.199219 142.710938 172.5625 129.347656 189.050781 129.347656 L 208.949219 129.347656 L 208.949219 149.25 L 189.050781 149.25 C 183.558594 149.25 179.097656 153.707031 179.097656 159.199219 L 179.097656 179.097656 C 179.097656 181.734375 178.054688 184.273438 176.183594 186.132812 L 163.320312 199 L 176.183594 211.863281 C 178.054688 213.726562 179.097656 216.261719 179.097656 218.898438 L 179.097656 238.796875 C 179.097656 244.292969 183.558594 248.75 189.050781 248.75 L 208.949219 248.75 Z M 208.949219 268.648438 " style=" stroke:none;fill-rule:nonzero;fill:rgb(89.019608%,29.411765%,52.941176%);fill-opacity:1;" />
<path d="M 328.351562 268.648438 L 308.449219 268.648438 L 308.449219 248.75 L 328.351562 248.75 C 333.84375 248.75 338.300781 244.292969 338.300781 238.800781 L 338.300781 218.898438 C 338.300781 216.261719 339.34375 213.726562 341.214844 211.863281 L 354.082031 199 L 341.214844 186.136719 C 339.34375 184.273438 338.300781 181.738281 338.300781 179.101562 L 338.300781 159.199219 C 338.300781 153.707031 333.839844 149.25 328.351562 149.25 L 308.449219 149.25 L 308.449219 129.351562 L 328.351562 129.351562 C 344.835938 129.351562 358.199219 142.714844 358.199219 159.199219 L 358.199219 174.980469 L 375.183594 191.964844 C 379.066406 195.847656 379.066406 202.15625 375.183594 206.035156 L 358.199219 223.019531 L 358.199219 238.800781 C 358.199219 255.285156 344.835938 268.648438 328.351562 268.648438 Z M 328.351562 268.648438 " style=" stroke:none;fill-rule:nonzero;fill:rgb(89.019608%,29.411765%,52.941176%);fill-opacity:1;" />
<path d="M 208.949219 208.949219 L 228.851562 208.949219 L 228.851562 228.851562 L 208.949219 228.851562 Z M 208.949219 208.949219 " style=" stroke:none;fill-rule:nonzero;fill:rgb(89.019608%,29.411765%,52.941176%);fill-opacity:1;" />
<path d="M 248.75 208.949219 L 268.648438 208.949219 L 268.648438 228.851562 L 248.75 228.851562 Z M 248.75 208.949219 " style=" stroke:none;fill-rule:nonzero;fill:rgb(89.019608%,29.411765%,52.941176%);fill-opacity:1;" />
<path d="M 288.550781 208.949219 L 308.449219 208.949219 L 308.449219 228.851562 L 288.550781 228.851562 Z M 288.550781 208.949219 " style=" stroke:none;fill-rule:nonzero;fill:rgb(89.019608%,29.411765%,52.941176%);fill-opacity:1;" />
<path d="M 39.800781 258.699219 L 99.5 258.699219 L 99.5 318.402344 L 39.800781 318.402344 Z M 39.800781 258.699219 " style=" stroke:none;fill-rule:nonzero;fill:rgb(89.019608%,29.411765%,52.941176%);fill-opacity:1;" />
<path d="M 39.800781 378.097656 L 99.5 378.097656 L 99.5 437.800781 L 39.800781 437.800781 Z M 39.800781 378.097656 " style=" stroke:none;fill-rule:nonzero;fill:rgb(74.901961%,23.921569%,45.882353%);fill-opacity:1;" />
<path d="M 557.199219 0 L 119.402344 0 C 97.421875 0 79.597656 17.820312 79.597656 39.800781 L 79.597656 199 L 99.5 199 L 99.5 39.800781 C 99.5 28.804688 108.40625 19.898438 119.402344 19.898438 L 557.199219 19.898438 C 568.195312 19.898438 577.101562 28.804688 577.101562 39.800781 L 577.101562 398 C 577.101562 408.996094 568.195312 417.902344 557.199219 417.902344 L 298.5 417.902344 L 298.5 437.800781 L 557.199219 437.800781 C 579.179688 437.800781 597 419.980469 597 398 L 597 39.800781 C 597 17.820312 579.179688 0 557.199219 0 Z M 557.199219 0 " style=" stroke:none;fill-rule:nonzero;fill:rgb(0%,0%,0%);fill-opacity:1;" />
<path d="M 119.402344 39.800781 L 139.300781 39.800781 L 139.300781 59.699219 L 119.402344 59.699219 Z M 119.402344 39.800781 " style=" stroke:none;fill-rule:nonzero;fill:rgb(0%,0%,0%);fill-opacity:1;" />
<path d="M 159.199219 39.800781 L 179.101562 39.800781 L 179.101562 59.699219 L 159.199219 59.699219 Z M 159.199219 39.800781 " style=" stroke:none;fill-rule:nonzero;fill:rgb(0%,0%,0%);fill-opacity:1;" />
<path d="M 199 39.800781 L 218.902344 39.800781 L 218.902344 59.699219 L 199 59.699219 Z M 199 39.800781 " style=" stroke:none;fill-rule:nonzero;fill:rgb(0%,0%,0%);fill-opacity:1;" />
<path d="M 119.402344 79.597656 L 557.199219 79.597656 L 557.199219 99.5 L 119.402344 99.5 Z M 119.402344 79.597656 " style=" stroke:none;fill-rule:nonzero;fill:rgb(0%,0%,0%);fill-opacity:1;" />
<path d="M 467.648438 278.597656 L 557.199219 278.597656 L 557.199219 298.5 L 467.648438 298.5 Z M 467.648438 278.597656 " style=" stroke:none;fill-rule:nonzero;fill:rgb(0%,0%,0%);fill-opacity:1;" />
<path d="M 358.199219 328.351562 L 557.199219 328.351562 L 557.199219 348.25 L 358.199219 348.25 Z M 358.199219 328.351562 " style=" stroke:none;fill-rule:nonzero;fill:rgb(0%,0%,0%);fill-opacity:1;" />
<path d="M 407.949219 179.097656 L 517.398438 179.097656 L 517.398438 199 L 407.949219 199 Z M 407.949219 179.097656 " style=" stroke:none;fill-rule:nonzero;fill:rgb(0%,0%,0%);fill-opacity:1;" />
<path d="M 407.949219 129.351562 L 487.550781 129.351562 L 487.550781 149.25 L 407.949219 149.25 Z M 407.949219 129.351562 " style=" stroke:none;fill-rule:nonzero;fill:rgb(0%,0%,0%);fill-opacity:1;" />
<path d="M 507.449219 129.351562 L 557.199219 129.351562 L 557.199219 149.25 L 507.449219 149.25 Z M 507.449219 129.351562 " style=" stroke:none;fill-rule:nonzero;fill:rgb(0%,0%,0%);fill-opacity:1;" />
<path d="M 537.300781 179.097656 L 557.199219 179.097656 L 557.199219 199 L 537.300781 199 Z M 537.300781 179.097656 " style=" stroke:none;fill-rule:nonzero;fill:rgb(0%,0%,0%);fill-opacity:1;" />
<path d="M 407.949219 228.851562 L 557.199219 228.851562 L 557.199219 248.75 L 407.949219 248.75 Z M 407.949219 228.851562 " style=" stroke:none;fill-rule:nonzero;fill:rgb(0%,0%,0%);fill-opacity:1;" />
<path d="M 368.148438 278.597656 L 447.75 278.597656 L 447.75 298.5 L 368.148438 298.5 Z M 368.148438 278.597656 " style=" stroke:none;fill-rule:nonzero;fill:rgb(0%,0%,0%);fill-opacity:1;" />
<path d="M 467.648438 378.097656 L 557.199219 378.097656 L 557.199219 398 L 467.648438 398 Z M 467.648438 378.097656 " style=" stroke:none;fill-rule:nonzero;fill:rgb(0%,0%,0%);fill-opacity:1;" />
<path d="M 368.148438 378.097656 L 447.75 378.097656 L 447.75 398 L 368.148438 398 Z M 368.148438 378.097656 " style=" stroke:none;fill-rule:nonzero;fill:rgb(0%,0%,0%);fill-opacity:1;" />
<path d="M 179.097656 179.097656 L 179.097656 159.199219 C 179.097656 153.707031 183.558594 149.25 189.050781 149.25 L 208.949219 149.25 L 208.949219 129.347656 L 189.050781 129.347656 C 172.5625 129.347656 159.199219 142.710938 159.199219 159.199219 L 159.199219 174.980469 L 142.214844 191.964844 C 138.332031 195.84375 138.332031 202.152344 142.214844 206.035156 L 159.199219 223.019531 L 159.199219 238.800781 C 159.199219 255.285156 172.5625 268.648438 189.050781 268.648438 L 208.949219 268.648438 L 208.949219 248.75 L 189.050781 248.75 C 183.558594 248.75 179.097656 244.292969 179.097656 238.800781 L 179.097656 218.898438 C 179.097656 216.261719 178.054688 213.726562 176.183594 211.863281 L 163.320312 199 L 176.183594 186.136719 C 178.054688 184.273438 179.097656 181.738281 179.097656 179.097656 Z M 179.097656 179.097656 " style=" stroke:none;fill-rule:nonzero;fill:rgb(0%,0%,0%);fill-opacity:1;" />
<path d="M 358.199219 238.800781 L 358.199219 223.019531 L 375.183594 206.035156 C 379.066406 202.152344 379.066406 195.84375 375.183594 191.964844 L 358.199219 174.980469 L 358.199219 159.199219 C 358.199219 142.710938 344.835938 129.347656 328.351562 129.347656 L 308.449219 129.347656 L 308.449219 149.25 L 328.351562 149.25 C 333.84375 149.25 338.300781 153.707031 338.300781 159.199219 L 338.300781 179.097656 C 338.300781 181.734375 339.34375 184.273438 341.214844 186.132812 L 354.082031 199 L 341.214844 211.863281 C 339.34375 213.726562 338.300781 216.261719 338.300781 218.898438 L 338.300781 238.796875 C 338.300781 244.292969 333.839844 248.75 328.351562 248.75 L 308.449219 248.75 L 308.449219 268.648438 L 328.351562 268.648438 C 344.835938 268.648438 358.199219 255.285156 358.199219 238.800781 Z M 358.199219 238.800781 " style=" stroke:none;fill-rule:nonzero;fill:rgb(0%,0%,0%);fill-opacity:1;" />
<path d="M 208.949219 208.949219 L 228.851562 208.949219 L 228.851562 228.851562 L 208.949219 228.851562 Z M 208.949219 208.949219 " style=" stroke:none;fill-rule:nonzero;fill:rgb(0%,0%,0%);fill-opacity:1;" />
<path d="M 248.75 208.949219 L 268.648438 208.949219 L 268.648438 228.851562 L 248.75 228.851562 Z M 248.75 208.949219 " style=" stroke:none;fill-rule:nonzero;fill:rgb(0%,0%,0%);fill-opacity:1;" />
<path d="M 288.550781 208.949219 L 308.449219 208.949219 L 308.449219 228.851562 L 288.550781 228.851562 Z M 288.550781 208.949219 " style=" stroke:none;fill-rule:nonzero;fill:rgb(0%,0%,0%);fill-opacity:1;" />
<path d="M 69.648438 597 L 368.148438 597 C 373.640625 597 378.097656 592.542969 378.097656 587.050781 L 378.097656 467.648438 C 378.097656 462.15625 373.640625 457.699219 368.148438 457.699219 L 237.804688 457.699219 L 329.980469 365.523438 C 333.863281 361.644531 333.863281 355.335938 329.980469 351.453125 L 245.554688 267.027344 C 241.605469 263.296875 235.4375 263.296875 231.484375 267.027344 L 139.296875 359.195312 L 139.296875 228.851562 C 139.296875 223.359375 134.839844 218.902344 129.347656 218.902344 L 9.949219 218.902344 C 4.457031 218.902344 0 223.359375 0 228.851562 L 0 527.347656 C 0.0390625 565.796875 31.203125 596.960938 69.648438 597 Z M 258.699219 477.597656 L 358.199219 477.597656 L 358.199219 577.097656 L 258.699219 577.097656 Z M 238.511719 288.132812 L 308.867188 358.488281 L 238.511719 428.84375 L 168.15625 358.488281 Z M 139.300781 527.347656 L 139.300781 387.34375 L 154.085938 372.566406 L 224.441406 442.921875 L 139.300781 528.09375 C 139.300781 527.835938 139.300781 527.597656 139.300781 527.347656 Z M 217.90625 477.597656 L 238.800781 477.597656 L 238.800781 577.097656 L 118.34375 577.097656 C 118.523438 576.921875 118.722656 576.769531 118.902344 576.59375 Z M 19.902344 238.800781 L 119.402344 238.800781 L 119.402344 338.300781 L 19.902344 338.300781 Z M 19.902344 358.199219 L 119.402344 358.199219 L 119.402344 457.699219 L 19.902344 457.699219 Z M 19.902344 477.597656 L 119.402344 477.597656 L 119.402344 527.347656 C 119.359375 546.992188 107.769531 564.769531 89.820312 572.730469 C 89.53125 572.871094 89.261719 573.070312 88.964844 573.1875 C 86.496094 574.183594 83.960938 574.96875 81.363281 575.558594 C 80.765625 575.707031 80.199219 575.976562 79.589844 576.09375 C 52.667969 581.585938 26.398438 564.214844 20.90625 537.289062 C 20.242188 534.015625 19.902344 530.683594 19.902344 527.347656 Z M 19.902344 477.597656 " style=" stroke:none;fill-rule:nonzero;fill:rgb(0%,0%,0%);fill-opacity:1;" />
<path d="M 69.648438 557.199219 C 86.136719 557.199219 99.5 543.835938 99.5 527.347656 C 99.5 510.863281 86.136719 497.5 69.648438 497.5 C 53.164062 497.5 39.800781 510.863281 39.800781 527.347656 C 39.800781 543.835938 53.164062 557.199219 69.648438 557.199219 Z M 69.648438 517.398438 C 75.140625 517.398438 79.597656 521.859375 79.597656 527.347656 C 79.597656 532.839844 75.140625 537.296875 69.648438 537.296875 C 64.15625 537.296875 59.699219 532.839844 59.699219 527.347656 C 59.699219 521.859375 64.15625 517.398438 69.648438 517.398438 Z M 69.648438 517.398438 " style=" stroke:none;fill-rule:nonzero;fill:rgb(0%,0%,0%);fill-opacity:1;" />
</g>
</svg>