<svg xmlns="http://www.w3.org/2000/svg" height="937.5pt" version="1.1" viewBox="0 0 937.5 937.5" width="937.5pt">
<g id="surface1">
<path d="M 875 0 L 187.5 0 C 152.984375 0 125 27.984375 125 62.5 L 125 312.5 L 156.25 312.5 L 156.25 62.5 C 156.25 45.238281 170.238281 31.25 187.5 31.25 L 875 31.25 C 892.261719 31.25 906.25 45.238281 906.25 62.5 L 906.25 625 C 906.25 642.261719 892.261719 656.25 875 656.25 L 468.75 656.25 L 468.75 687.5 L 875 687.5 C 909.515625 687.5 937.5 659.515625 937.5 625 L 937.5 62.5 C 937.5 27.984375 909.515625 0 875 0 Z M 875 0 " style=" stroke:none;fill-rule:nonzero;fill:rgb(0%,0%,0%);fill-opacity:1;" />
<path d="M 187.5 62.5 L 218.75 62.5 L 218.75 93.75 L 187.5 93.75 Z M 187.5 62.5 " style=" stroke:none;fill-rule:nonzero;fill:rgb(0%,0%,0%);fill-opacity:1;" />
<path d="M 250 62.5 L 281.25 62.5 L 281.25 93.75 L 250 93.75 Z M 250 62.5 " style=" stroke:none;fill-rule:nonzero;fill:rgb(0%,0%,0%);fill-opacity:1;" />
<path d="M 312.5 62.5 L 343.75 62.5 L 343.75 93.75 L 312.5 93.75 Z M 312.5 62.5 " style=" stroke:none;fill-rule:nonzero;fill:rgb(0%,0%,0%);fill-opacity:1;" />
<path d="M 187.5 125 L 875 125 L 875 156.25 L 187.5 156.25 Z M 187.5 125 " style=" stroke:none;fill-rule:nonzero;fill:rgb(0%,0%,0%);fill-opacity:1;" />
<path d="M 734.375 437.5 L 875 437.5 L 875 468.75 L 734.375 468.75 Z M 734.375 437.5 " style=" stroke:none;fill-rule:nonzero;fill:rgb(0%,0%,0%);fill-opacity:1;" />
<path d="M 562.5 515.625 L 875 515.625 L 875 546.875 L 562.5 546.875 Z M 562.5 515.625 " style=" stroke:none;fill-rule:nonzero;fill:rgb(0%,0%,0%);fill-opacity:1;" />
<path d="M 640.625 281.25 L 812.5 281.25 L 812.5 312.5 L 640.625 312.5 Z M 640.625 281.25 " style=" stroke:none;fill-rule:nonzero;fill:rgb(0%,0%,0%);fill-opacity:1;" />
<path d="M 640.625 203.125 L 765.625 203.125 L 765.625 234.375 L 640.625 234.375 Z M 640.625 203.125 " style=" stroke:none;fill-rule:nonzero;fill:rgb(0%,0%,0%);fill-opacity:1;" />
<path d="M 796.875 203.125 L 875 203.125 L 875 234.375 L 796.875 234.375 Z M 796.875 203.125 " style=" stroke:none;fill-rule:nonzero;fill:rgb(0%,0%,0%);fill-opacity:1;" />
<path d="M 843.75 281.25 L 875 281.25 L 875 312.5 L 843.75 312.5 Z M 843.75 281.25 " style=" stroke:none;fill-rule:nonzero;fill:rgb(0%,0%,0%);fill-opacity:1;" />
<path d="M 640.625 359.375 L 875 359.375 L 875 390.625 L 640.625 390.625 Z M 640.625 359.375 " style=" stroke:none;fill-rule:nonzero;fill:rgb(0%,0%,0%);fill-opacity:1;" />
<path d="M 578.125 437.5 L 703.125 437.5 L 703.125 468.75 L 578.125 468.75 Z M 578.125 437.5 " style=" stroke:none;fill-rule:nonzero;fill:rgb(0%,0%,0%);fill-opacity:1;" />
<path d="M 734.375 593.75 L 875 593.75 L 875 625 L 734.375 625 Z M 734.375 593.75 " style=" stroke:none;fill-rule:nonzero;fill:rgb(0%,0%,0%);fill-opacity:1;" />
<path d="M 578.125 593.75 L 703.125 593.75 L 703.125 625 L 578.125 625 Z M 578.125 593.75 " style=" stroke:none;fill-rule:nonzero;fill:rgb(0%,0%,0%);fill-opacity:1;" />
<path d="M 281.25 281.25 L 281.25 250 C 281.25 241.367188 288.242188 234.375 296.875 234.375 L 328.125 234.375 L 328.125 203.125 L 296.875 203.125 C 270.992188 203.125 250 224.117188 250 250 L 250 274.78125 L 223.328125 301.453125 C 217.230469 307.558594 217.230469 317.441406 223.328125 323.546875 L 250 350.21875 L 250 375 C 250 400.882812 270.992188 421.875 296.875 421.875 L 328.125 421.875 L 328.125 390.625 L 296.875 390.625 C 288.242188 390.625 281.25 383.632812 281.25 375 L 281.25 343.75 C 281.25 339.605469 279.601562 335.632812 276.671875 332.703125 L 256.46875 312.5 L 276.671875 292.296875 C 279.601562 289.367188 281.25 285.394531 281.25 281.25 Z M 281.25 281.25 " style=" stroke:none;fill-rule:nonzero;fill:rgb(0%,0%,0%);fill-opacity:1;" />
<path d="M 562.5 375 L 562.5 350.21875 L 589.171875 323.546875 C 595.269531 317.441406 595.269531 307.558594 589.171875 301.453125 L 562.5 274.78125 L 562.5 250 C 562.5 224.117188 541.507812 203.125 515.625 203.125 L 484.375 203.125 L 484.375 234.375 L 515.625 234.375 C 524.257812 234.375 531.25 241.367188 531.25 250 L 531.25 281.25 C 531.25 285.394531 532.898438 289.367188 535.828125 292.296875 L 556.03125 312.5 L 535.828125 332.703125 C 532.898438 335.632812 531.25 339.605469 531.25 343.75 L 531.25 375 C 531.25 383.632812 524.257812 390.625 515.625 390.625 L 484.375 390.625 L 484.375 421.875 L 515.625 421.875 C 541.507812 421.875 562.5 400.882812 562.5 375 Z M 562.5 375 " style=" stroke:none;fill-rule:nonzero;fill:rgb(0%,0%,0%);fill-opacity:1;" />
<path d="M 328.125 328.125 L 359.375 328.125 L 359.375 359.375 L 328.125 359.375 Z M 328.125 328.125 " style=" stroke:none;fill-rule:nonzero;fill:rgb(0%,0%,0%);fill-opacity:1;" />
<path d="M 390.625 328.125 L 421.875 328.125 L 421.875 359.375 L 390.625 359.375 Z M 390.625 328.125 " style=" stroke:none;fill-rule:nonzero;fill:rgb(0%,0%,0%);fill-opacity:1;" />
<path d="M 453.125 328.125 L 484.375 328.125 L 484.375 359.375 L 453.125 359.375 Z M 453.125 328.125 " style=" stroke:none;fill-rule:nonzero;fill:rgb(0%,0%,0%);fill-opacity:1;" />
<path d="M 109.375 937.5 L 578.125 937.5 C 586.757812 937.5 593.75 930.507812 593.75 921.875 L 593.75 734.375 C 593.75 725.742188 586.757812 718.75 578.125 718.75 L 373.4375 718.75 L 518.1875 574 C 524.289062 567.898438 524.289062 558.007812 518.1875 551.90625 L 385.617188 419.328125 C 379.40625 413.46875 369.71875 413.46875 363.519531 419.328125 L 218.75 564.0625 L 218.75 359.375 C 218.75 350.742188 211.757812 343.75 203.125 343.75 L 15.625 343.75 C 6.992188 343.75 0 350.742188 0 359.375 L 0 828.125 C 0.0703125 888.5 49 937.429688 109.375 937.5 Z M 406.25 750 L 562.5 750 L 562.5 906.25 L 406.25 906.25 Z M 374.550781 452.464844 L 485.035156 562.949219 L 374.550781 673.4375 L 264.0625 562.949219 Z M 218.75 828.125 L 218.75 608.273438 L 241.96875 585.058594 L 352.453125 695.550781 L 218.75 829.296875 C 218.75 828.886719 218.75 828.515625 218.75 828.125 Z M 342.1875 750 L 375 750 L 375 906.25 L 185.84375 906.25 C 186.128906 905.96875 186.4375 905.734375 186.71875 905.460938 Z M 31.25 375 L 187.5 375 L 187.5 531.25 L 31.25 531.25 Z M 31.25 562.5 L 187.5 562.5 L 187.5 718.75 L 31.25 718.75 Z M 31.25 750 L 187.5 750 L 187.5 828.125 C 187.441406 858.976562 169.242188 886.890625 141.046875 899.390625 C 140.59375 899.609375 140.175781 899.925781 139.703125 900.109375 C 135.835938 901.664062 131.835938 902.90625 127.757812 903.832031 C 126.832031 904.058594 125.9375 904.488281 124.992188 904.667969 C 101.996094 909.355469 78.125 903.472656 59.960938 888.632812 C 41.796875 873.789062 31.25 851.585938 31.25 828.125 Z M 31.25 750 " style=" stroke:none;fill-rule:nonzero;fill:rgb(0%,0%,0%);fill-opacity:1;" />
<path d="M 109.375 875 C 135.257812 875 156.25 854.007812 156.25 828.125 C 156.25 802.242188 135.257812 781.25 109.375 781.25 C 83.492188 781.25 62.5 802.242188 62.5 828.125 C 62.5 854.007812 83.492188 875 109.375 875 Z M 109.375 812.5 C 118.007812 812.5 125 819.492188 125 828.125 C 125 836.757812 118.007812 843.75 109.375 843.75 C 100.742188 843.75 93.75 836.757812 93.75 828.125 C 93.75 819.492188 100.742188 812.5 109.375 812.5 Z M 109.375 812.5 " style=" stroke:none;fill-rule:nonzero;fill:rgb(0%,0%,0%);fill-opacity:1;" />
</g>
</svg>